<svg xmlns="http://www.w3.org/2000/svg" version="1.1" xmlns:xlink="http://www.w3.org/1999/xlink" xmlns:svgjs="http://svgjs.dev/svgjs" width="100%" height="100%" viewBox="0 0 1000 600"><rect width="1000" height="600" x="0" y="0" fill="#000000"/><g><circle r="166.66666666666666" cx="251.25495402018225" cy="273.47716578949706" fill="#000000" transform="matrix(1.4777458723261478,0,0,1.477745872326148,0,-104.12977939738312)"/><path d="M212.46031465191595 348.47715753818943L212.46031465191595 348.47715753818943Q209.45436236196988 348.47715753818943 207.6388862264579 346.5426337872341Q205.82341009094594 344.6081100362786 205.82341009094594 342.0485863042454L205.82341009094594 342.0485863042454L205.82341009094594 204.90573331343958Q205.82341009094594 202.3462095814063 207.75793384190135 200.41168583045095Q209.66269568899585 198.47716207949557 212.25198132488998 198.47716207949557L212.25198132488998 198.47716207949557L290.257931344183 198.47716207949557Q293.02578840324225 198.47716207949557 294.8412645387542 200.29263821500754Q296.68650257812703 202.1081143505195 296.68650257812703 204.90573331343958L296.68650257812703 204.90573331343958Q296.68650257812703 207.46525704547284 294.8412645387542 209.31049508484568Q293.02578840324225 211.12597122035766 290.257931344183 211.12597122035766L290.257931344183 211.12597122035766L218.02579067389527 211.12597122035766L218.88888588585996 209.846209354341L218.88888588585996 266.8402552478725L217.8174573468693 264.90573149691716L280.6150744932669 264.90573149691716Q283.3829315523261 264.90573149691716 285.1984076878381 266.7212076324291Q287.043645727211 268.5366837679411 287.043645727211 271.1259694038352L287.043645727211 271.1259694038352Q287.043645727211 273.8938264628944 285.1984076878381 275.6200168868238Q283.3829315523261 277.34620731075324 280.6150744932669 277.34620731075324L280.6150744932669 277.34620731075324L217.40079069281737 277.34620731075324L218.88888588585996 275.6200168868238L218.88888588585996 342.0485863042454Q218.88888588585996 344.6081100362786 217.073409750348 346.5426337872341Q215.25793361483602 348.47715753818943 212.46031465191595 348.47715753818943Z " fill="#ffffff" transform="matrix(1.4777458723261478,0,0,1.477745872326148,0,-104.12977939738312)"/><path d="M507.89186372418146 348.47715753818943L507.89186372418146 348.47715753818943Q504.8859114342354 348.47715753818943 503.07043529872345 346.5426337872341Q501.2549591632115 344.6081100362786 501.2549591632115 342.0485863042454L501.2549591632115 342.0485863042454L501.2549591632115 204.90573331343958Q501.2549591632115 202.3462095814063 503.18948291416683 200.41168583045095Q505.0942447612614 198.47716207949557 507.6835303971555 198.47716207949557L507.6835303971555 198.47716207949557L585.6894804164485 198.47716207949557Q588.4573374755078 198.47716207949557 590.2728136110197 200.29263821500754Q592.1180516503925 202.1081143505195 592.1180516503925 204.90573331343958L592.1180516503925 204.90573331343958Q592.1180516503925 207.46525704547284 590.2728136110197 209.31049508484568Q588.4573374755078 211.12597122035766 585.6894804164485 211.12597122035766L585.6894804164485 211.12597122035766L513.4573397461609 211.12597122035766L514.3204349581256 209.846209354341L514.3204349581256 266.8402552478725L513.2490064191347 264.90573149691716L576.0466235655324 264.90573149691716Q578.8144806245916 264.90573149691716 580.6299567601036 266.7212076324291Q582.4751947994764 268.5366837679411 582.4751947994764 271.1259694038352L582.4751947994764 271.1259694038352Q582.4751947994764 273.8938264628944 580.6299567601036 275.6200168868238Q578.8144806245916 277.34620731075324 576.0466235655324 277.34620731075324L576.0466235655324 277.34620731075324L512.8323397650829 277.34620731075324L514.3204349581256 275.6200168868238L514.3204349581256 342.0485863042454Q514.3204349581256 344.6081100362786 512.5049588226136 346.5426337872341Q510.68948268710153 348.47715753818943 507.89186372418146 348.47715753818943Z " fill="#ffffff" transform="matrix(1.4777458723261478,0,0,1.477745872326148,0,-104.12977939738312)"/></g></svg>